<?xml version="1.0" encoding="UTF-8"?>
<svg xmlns="http://www.w3.org/2000/svg" version="1.1" viewBox="0 0 800 800">
  <!-- Generator: Adobe Illustrator 29.1.0, SVG Export Plug-In . SVG Version: 2.1.0 Build 142)  -->
  <defs>
    <style>
      .st0 {
        fill: #fff;
      }

      .st1 {
        fill: #b70311;
      }
    </style>
  </defs>
  <g id="Layer_2">
    <circle class="st0" cx="405.3" cy="412.9" r="314"/>
  </g>
  <g id="Layer_1">
    <path class="st1" d="M400,66.7c184,0,333.3,149.3,333.3,333.3s-149.3,333.3-333.3,333.3S66.7,584,66.7,400,216,66.7,400,66.7ZM167.7,526.9c56.9,84.8,142.2,138.8,237.7,138.8s180.8-53.9,237.6-138.8c-64.5-60.2-149.4-93.7-237.6-93.6-88.2-.1-173.2,33.3-237.7,93.6ZM400,366.7c55.2,0,100-44.8,100-100s-44.8-100-100-100-100,44.8-100,100,44.8,100,100,100Z"/>
  </g>
</svg>